<?xml version="1.0" encoding="utf-8"?>
<!-- Generator: Adobe Illustrator 24.3.0, SVG Export Plug-In . SVG Version: 6.00 Build 0)  -->
<svg version="1.1" id="Layer_1" xmlns="http://www.w3.org/2000/svg" xmlns:xlink="http://www.w3.org/1999/xlink" x="0px" y="0px"
	 viewBox="0 0 512 72.2" style="enable-background:new 0 0 512 72.2;" xml:space="preserve">
<style type="text/css">
	.st0{fill:#6C6366;}
</style>
<g>
	<path class="st0" d="M2.4,61.6c-1.4-2-1.3-5.4,1.7-8c3.7-3.2,10.1-4.9,17.8-6.6c1.4-2,2.8-4.2,4.3-6.7c-2.3,2.5-4.3,4-5,4.5
		c-1.6,1-2.7,1.3-3.4,1.3c-1.1,0-2.2-0.4-3.5-1.8c-1.2-1.3-0.8-3,2.6-8.4c2.7-4.3,4-7.4,4.3-8.9c0.1-0.6,0.4-0.8,0.8-0.8
		c0.7,0,1.5,0.2,2.5,0.6c2.4,1,3,2.6,1.4,6.4c-0.9,2.2-2.3,4.9-3.2,7c2.5-1.5,5.6-4.5,9.8-10.2c1.3-1.8,1.6-2.2,2.2-2.2
		s1.3,0.4,2.4,0.7c1.9,0.6,2.6,1.7,1.7,3.3c-1.6,3.1-4.3,7.6-7.3,12.3c4.4-2.1,8.3-5.1,10.6-8.3l0.2-0.2c0.3-0.4,0.5-0.5,0.7-0.4
		l0.2,0.2c0.4,0.3,0.3,0.8,0.1,1.1l-0.2,0.2c-3.6,4.8-7.3,8.3-13.9,10.9C21.7,58.4,14.1,64.3,7.6,64.3C5.2,64.3,3.4,63.1,2.4,61.6z
		 M5.5,60c4,0.1,8.5-2.8,13.8-9.6c-6.4,1.9-9.1,3.5-11.4,5.4C6.1,57.3,5.4,58.7,5.5,60z"/>
	<path class="st0" d="M41.1,45.2c-2.5-2.8-2.9-6.6,0.7-11.5c3.1-4.1,8.7-7.4,12-7.4c1.3,0,2.3,0.2,3.4,0.8c1.6,1,2,1.6,2,2
		c0,0.2-0.1,0.4-0.6,0.7c0.7,0.9,1.2,2.2,1.2,3.8c0,0.5-0.1,1-0.1,1.5c3.2-0.5,6.2-2.6,8.8-5.1l0.2-0.2c0.4-0.4,0.6-0.4,0.8-0.2
		l0.1,0.2c0.2,0.3,0.2,0.6-0.1,0.9L69.3,31c-2.2,2.7-6.2,6-10.4,6.7c-2,4.9-6.8,10-12.3,10C44.2,47.7,42.5,46.8,41.1,45.2z
		 M55.5,37.7c-2.2-0.6-3.2-2.1-3.3-4c-3.5,2.8-6.2,6.4-5.8,9.9C49.7,43.4,53.4,40.8,55.5,37.7z M57,30.7c-0.9,0.5-1.8,1.1-2.8,1.7
		c0.1,1.5,0.9,2.5,2.8,2.8c0.3-0.8,0.5-1.6,0.5-2.4C57.5,31.8,57.3,31.1,57,30.7z"/>
	<path class="st0" d="M75.4,40.6c-3.5,4.2-7.2,7.2-9.5,7.2c-1.7,0-3-1.2-4.2-2.5c-1.9-2.1-1.3-4.9,2.2-9.4c4.9-6.5,5.7-7.6,6-8.8
		c0.1-0.4,0.6-0.6,1.2-0.6c2.1,0,5.6,0.6,5.6,3.1c0,3.7-5.6,8.3-7.9,13.3c3.6-1.2,7.8-6.1,11.4-12.3c0.9-1.6,1.2-2.1,2.1-2.1
		c0.6,0,2,0.2,3.2,0.5c1.2,0.3,1.9,0.8,1.9,1.9c0,1.2-0.8,2.7-2.8,5.9c-2,3.2-2.9,5.1-2.8,6.2c1.6-0.3,4.1-1.5,7.1-3.8
		c0.3-0.2,0.5-0.1,0.4,0.2c-0.2,0.6-0.5,1.4-0.8,2c-0.3,0.4-0.6,0.8-1.6,1.6c-2.7,2.2-4.7,4-7.4,4c-1.3,0-2.1-0.2-3.3-1.2
		C74.8,44.8,74.3,43.5,75.4,40.6z"/>
	<path class="st0" d="M112.5,41.5c-3,4.2-5.5,5.9-7.2,5.9c-2.2,0-4.5-1.8-5.8-4.2c-1.2-2.1-1.1-5,2-9c3.6-4.7,9.1-7.6,12.3-7.6
		c1.7,0,3.1,1.5,4,3c0.3-0.4,0.6-0.7,1.2-0.7c0.5,0,1.5,0.3,3.2,1.1c1.3,0.6,1.8,1.3,1.8,1.9c0,0.7-0.4,1.8-2.2,5.5
		c-1.1,2.3-2.1,4.7-2.3,6.2c2.5-0.6,4.9-2.5,8.8-7.6l0.2-0.2c0.4-0.5,0.5-0.6,0.7-0.4l0.2,0.2c0.4,0.4,0.3,0.7,0.1,1.1l-0.2,0.3
		c-3.7,6.2-8.8,10.9-13.2,10.9C113.5,47.7,111.6,46.2,112.5,41.5z M116.8,31.2c-2.4,0.6-4.8,2.2-6.7,4.1c-2.6,2.6-4.4,5.8-4,8
		C109.4,42.1,112.7,38.7,116.8,31.2z"/>
	<path class="st0" d="M126.4,46.6c-0.8-1-1.2-1.9-1.2-2.9c0-1.7,0.8-4.1,3.2-7.8c8.2-12.6,14.1-21.2,18.5-27.4
		c0.4-0.6,0.7-0.7,1.5-0.3c0.6,0.3,1.3,0.9,2.1,1.5c1.3,1.1,2,2.2-0.3,6c-2.7,4.4-11.2,17.2-14.4,22c-2.5,3.6-3.3,5.7-3.5,6.9
		c2.3-0.4,4.9-1.7,7-4c0.1-0.1,0.3-0.1,0.3,0c0.1,0.2,0.1,0.6,0.1,0.8s-0.1,0.6-0.4,1.1c-1.7,2.4-5.5,6-8.9,6
		C128.3,48.5,127.2,47.7,126.4,46.6z"/>
	<path class="st0" d="M146.3,47.5c-1.2,0-1.9-0.9-3-1.5c-0.8-0.4-1.2-0.9-1.2-1.9c0-1.5,1-4.5,2.5-8.2c1.4-3.4,3.1-7,4.2-9.1
		c0.2-0.4,0.6-0.5,1.6-0.3c0.6,0.1,1.8,0.4,2.4,0.8c1.4,0.7,1.6,1.6,1.1,3.1c-0.5,1.6-1.7,5.1-2.7,8.6c3.6-3.6,6.6-7.6,7.5-8.7
		c0.5-0.6,0.8-0.6,1.2-0.5c0.6,0.1,2.3,0.3,3,0.4c0.7,0.1,1.1,0.7,0.4,2.6c-0.6,1.8-1.3,4.2-2,7c3.8-3.6,9.3-9.6,12-12.8
		c0.6-0.7,0.9-0.6,1.1-0.2c0.2,0.6,0.3,0.9,0.3,1.1c0,0.4-0.2,0.8-0.6,1.3c-1.4,1.9-7.5,9.6-12,14.6c-1.7,2-2.7,3-3.9,3
		c-0.5,0-2.2-0.5-2.8-0.8c-0.7-0.3-0.7-1.4-0.6-2.5c0.3-2.3,0.6-4.7,1.1-6.7c-2.3,3.3-4.5,6.1-6,7.8
		C147.6,47.2,146.9,47.5,146.3,47.5z"/>
	<path class="st0" d="M173.8,45.7c-1.1-0.6-1.8-1.3-2.5-2.5c-1.3-2.1-0.8-5.4,2.5-9.3c2.7-3.3,6.5-6,10.4-7.2
		c1.2-0.4,2.2-0.5,3.5-0.2c1.3,0.3,2.8,1.5,3.7,2.7c0.4-0.1,1.1-0.1,1.6,0.2c1.1,0.6,3,2.2,3.7,3.2c0.2,0.3,0.2,0.8-0.2,1.3
		c-2.2,2.6-3.9,5.9-4.8,9.1c2.5-0.4,5.1-2.2,8.9-7.2l0.2-0.2c0.4-0.5,0.5-0.6,0.7-0.4l0.2,0.2c0.4,0.4,0.3,0.7,0.1,1.1l-0.2,0.3
		c-2,3.3-8.3,10.5-14.1,10.5c-2.5,0-3.5-2.1-3-5.2c-2.3,2.6-4.3,4.4-5.9,5C177.2,47.7,176,47.6,173.8,45.7z M186.4,36.2
		c1-1.9,2.2-3.8,3.2-5.3c-6.2,2-11.8,8.3-11.7,12.5C180.7,42.2,183.7,39.7,186.4,36.2z"/>
	<path class="st0" d="M187.9,62.7c-1.3-1.2-2.2-2.6-2.2-4.6c0-1.5,0.7-3.2,2.4-4.7c3.3-3,9.8-4.4,17.5-6c1.4-2,2.7-4,4-6.1
		c-4.4,4.4-6.2,5.3-8.1,5.3c-0.9,0-1.5-0.2-2.6-0.9c-1.4-0.9-1.6-1.7-0.7-4.4c1.3-3.7,5.4-10.8,6.9-14.3c0.1-0.3,0.3-0.4,0.7-0.4
		c0.3,0,1.4,0.2,2.4,0.4c2.3,0.6,2.8,1.6,2.2,3.5c-0.5,1.8-2.4,5.8-3.9,9.8c3.1-1.7,6.9-5.4,10.2-11.3c0.6-1.1,1-1.4,1.7-1.4
		c0.7,0,2.5,0.6,3.3,1c0.9,0.5,1.1,1,0.7,2.2c-0.7,2.5-4.2,8.5-7.6,13.8c4.4-2.2,8.4-5.4,10.8-8.6l0.2-0.2c0.3-0.4,0.5-0.5,0.7-0.4
		l0.2,0.2c0.4,0.3,0.3,0.8,0.1,1.1l-0.2,0.2c-3.7,4.9-7.4,8.6-14.1,11.3c-8,12-16.2,16.2-20.1,16.2C190.9,64.3,189.5,64,187.9,62.7z
		 M202.9,50.7c-6.5,1.8-9.3,3-11.4,4.9c-1.9,1.7-2.3,3.2-2.2,4.7c0.2,0.1,0.4,0.1,0.6,0.1C193.2,60.4,197.5,57.4,202.9,50.7z"/>
	<path class="st0" d="M221.5,49.1c-0.6-0.7-1-1.3-1.2-1.8c-0.2-0.5-0.1-0.8,0.3-1c5.6-1.9,8.3-4.5,8.3-6.3c0-2.1-3.6-3.7-3.6-6.6
		c0-2.3,1.7-4.5,4.3-5.9c1.4-0.8,3.1-1.3,4.1-1.3c1.5,0,2.7,0.6,4,2.5c1.3,2.1,1.2,2.8,0.6,3c-3.9,1.2-8.1,3.6-8.1,5.6
		c0,1.7,3.5,2.6,3.5,6.1c0,1.8-0.8,3.6-3.4,5.4c-1.2,0.9-3.5,1.9-5.5,1.9C223.2,50.5,222.3,50,221.5,49.1z"/>
	<path class="st0" d="M258.7,46.4c-1.4-1.4-1.8-3.1-1-5c1.4-3,4.2-6.4,5.8-9.3c-2.5,1.7-6,4.7-9.6,8.6c-0.6,1-1.2,2-1.7,3.1
		c-1.7,3.1-2.2,3.7-3,3.7c-0.6,0-1.7-0.3-3.1-0.9c-1.8-0.8-2.5-1.6-2.5-2.7c0-1.5,1.2-3.6,4-7.9c5.7-8.8,12.7-19.1,17.6-26.7
		c0.6-0.8,0.8-0.8,1.3-0.6c1.4,0.4,2.8,0.9,3.5,1.4c1.3,0.8,1.1,3.7-2.3,8.5c-2.3,3.2-5.2,7.5-9.3,14.4c4-2.8,7.6-5,9.1-5
		c0.8,0,1.7,0.3,2.5,1.1c1.3,1.2,1.4,2.2,0.6,4.1c-1.3,3-5.5,8.6-5.9,11.3c2.7-0.7,5.7-3.1,9.8-8.6l0.2-0.2c0.4-0.5,0.5-0.6,0.7-0.4
		l0.2,0.2c0.4,0.4,0.3,0.7,0.1,1.1l-0.2,0.3c-3.9,6.5-9.6,11.3-13,11.3C260.9,48.1,260,47.6,258.7,46.4z"/>
	<path class="st0" d="M285.1,41.5c-3,4.2-5.5,5.9-7.2,5.9c-2.2,0-4.5-1.8-5.8-4.2c-1.2-2.1-1.1-5,2-9c3.6-4.7,9.1-7.6,12.3-7.6
		c1.7,0,3.1,1.5,4,3c0.3-0.4,0.6-0.7,1.2-0.7c0.5,0,1.5,0.3,3.2,1.1c1.3,0.6,1.8,1.3,1.8,1.9c0,0.7-0.4,1.8-2.2,5.5
		c-1.1,2.3-2.1,4.7-2.3,6.2c1.5-0.6,3-1.6,4.3-3c0.1-0.1,0.3-0.1,0.3,0c0.1,0.2,0.1,0.6,0.1,0.8s-0.1,0.6-0.4,1.1
		c-1.8,2.2-4.5,5.2-7.8,5.2C286,47.7,284.1,46.2,285.1,41.5z M289.4,31.2c-2.4,0.6-4.7,2.2-6.7,4.1c-2.6,2.6-4.4,5.8-4,8
		C281.9,42.1,285.2,38.7,289.4,31.2z"/>
	<path class="st0" d="M300.5,46.6c-1.1-0.8-2.1-2.2-1.4-5.1c0.8-3.2,4.8-11.8,6-14.4c0.2-0.4,0.4-0.6,0.8-0.6c0.7,0,1.2,0.2,2.7,0.6
		c1.8,0.4,2.6,1,2.6,2.6c0,2.8-2.4,6.5-4.2,12.4c4.6-5.5,9.6-10.8,13.8-14.7c0.8-0.7,1.1-0.9,1.3-0.9c0.2,0,0.3,0.1,0.4,0.4
		c0.2,0.5,0.4,0.6,0.4,0.9c0,0.3-0.4,0.9-1.1,1.6c-4.8,5.1-8.4,9.6-13.5,17.3c-0.7,1.1-1.3,1.5-2.2,1.5
		C304.2,48.3,301.5,47.4,300.5,46.6z"/>
	<path class="st0" d="M320.8,44.7c-2-2.3-2.7-5.9,1.4-11.2c2.9-3.8,8-7,11.6-7c1.1,0,2,0.4,2.8,0.9c0.8,0.6,1.3,0.8,1.8,1.6
		c1.1,0.8,1.9,2.1,1.9,3.3c0,1.7-1,3.3-4.7,5.7c-2,1.2-5,2.6-8.9,3.9c-0.2,1.1-0.2,2,0.2,2.5c0.5,0.2,1.1,0.2,1.7,0.2
		c3.2,0,6.5-0.9,10.5-4.1c0.2-0.2,0.3-0.2,0.4-0.2c0.2,0,0.3,0.2,0.3,0.6c0,0.6-0.2,1.6-0.7,2.1c-3.2,3.5-7.7,5.4-11.9,5.4
		C324.9,48.3,323.2,47.6,320.8,44.7z M336.9,30.5c-3.1,0.7-7.2,4.8-9.1,8.6c2.5-1.1,4.8-2.2,6.3-3.3
		C336.1,34.3,337.4,32.5,336.9,30.5z"/>
	<path class="st0" d="M350,44.2c-0.9-1.2-0.6-4.2,2.1-8.3c1-1.6,2.6-3.7,4.3-6.1c-1.5,0.1-2.2-0.2-2.5-0.7c-0.2-0.4-0.4-1.6-0.4-2
		c0-0.4,0.3-0.5,1-0.6c1.5-0.2,3-0.3,4.6-0.5c2.5-3.5,4.9-6.9,6.1-9.2c0.8-1.5,0.9-1.7,1.3-1.7c0.4,0,1.4,0.3,2.8,1
		c1.3,0.7,2.2,1.4,2.2,2.6c0,1.3-1.1,3.3-3.2,6.4c1.5-0.1,2.6-0.2,3.5-0.2c0.7,0,0.9,0.1,0.9,0.3s-0.1,0.9-0.4,1.3
		c-0.2,0.2-0.6,0.4-1.5,0.7c-1.2,0.3-2.8,0.7-4.7,1.1c-3.3,4.8-7.9,11.8-9.5,15.6c0.3,0.1,0.7,0.1,1.1,0.1c3,0,7.4-3.1,11.2-8.1
		l0.2-0.2c0.4-0.5,0.5-0.6,0.7-0.4l0.2,0.2c0.4,0.4,0.3,0.7,0.1,1.1l-0.2,0.3c-2,3.2-9.1,11-14.2,11C353.4,47.8,351.5,46.3,350,44.2
		z"/>
	<path class="st0" d="M367.9,47.1c-0.9-0.7-1.7-1.4-2-2.2c-1.1-2.1-0.3-4.6,3-9c3.1-4.1,5.1-7.1,5.9-8.6c0.7-1.2,0.8-1.4,1.6-1.2
		c1.5,0.6,3.2,0.9,3.9,1.3c1.4,0.7,1.6,2.4-0.3,5c-2.7,3.5-7,9.3-7.5,12.4c2.6-0.3,6.1-2.4,10.9-8.9l0.2-0.2
		c0.4-0.5,0.5-0.6,0.7-0.4l0.2,0.2c0.4,0.4,0.3,0.7,0.1,1.1l-0.2,0.3c-2.3,3.9-8.9,11.5-13.1,11.5C370.1,48.3,368.8,47.7,367.9,47.1
		z M379.9,21.4c1.4-1.7,3.3-4.5,4.3-6.1c0.2-0.3,0.3-0.3,0.6-0.2c1.4,0.6,2.6,1.5,3.1,2.3c0.4,0.7,0.3,1.3-0.3,2.1
		c-1.3,1.3-2.3,2.3-2.8,2.6c-0.9,0.6-1.8,0.7-3,0.7c-0.6,0-1.7-0.2-2-0.5C379.6,22.1,379.6,21.8,379.9,21.4z"/>
	<path class="st0" d="M383.7,47.9c-1.6-0.4-4.2-1.8-4.5-3.7c-0.3-1.7,1.3-4.5,4.2-8.3c4.1-5.4,5.9-7.9,6.5-9.2
		c0.3-0.5,0.6-0.8,0.9-0.8s0.9,0.3,2,0.7c2.8,0.8,3.6,1.5,3.1,3.5c3-2,5.4-3,6.5-3c0.9,0,1.7,0.2,2.9,1.1c1.1,0.8,1.5,1.6,1.1,3.2
		c-0.3,0.9-0.7,2.1-1.3,3.3c4.1-3.5,5.1-4.1,6.2-4.1c0.9,0,1.6,0.2,2.2,0.6c1,0.6,1.6,1.4,1.6,2.3c-0.2,2.9-3.3,6.1-5,10.2
		c2.8-0.4,5.2-2.5,9.1-7.8l0.2-0.2c0.4-0.5,0.5-0.6,0.7-0.4l0.2,0.2c0.4,0.4,0.3,0.7,0.1,1.1l-0.2,0.3c-3.5,5.9-8.1,10.2-11.8,10.2
		c-1,0-2.3-0.3-3.2-0.8c-1.7-1-1.8-1.9-1.6-3.6c0.3-1.6,1.2-4,2-5.8c-1.7,1.2-3.6,3.3-5.9,6.7c-2,3-2.6,3.8-3.4,3.8
		s-1.4-0.6-2.7-1.1c-2.1-0.8-2.2-2.1-1.6-3.5c1.1-2.3,3-5.2,5.1-8.2c1.2-1.7,2-2.9,2.3-3.9c-1.8,1.3-4.4,3.5-7.1,6.1
		c-2.1,3.1-4.2,5.9-6.2,9.3C385.5,47.3,384.4,48.2,383.7,47.9z"/>
	<path class="st0" d="M421,47.1c-1.7-0.8-3.3-2.6-4.2-4.6c-0.8-1.9-0.1-5.3,2.3-8.5c3.1-4.1,8.6-7.5,12.4-7.5c1.5,0,2.7,0.5,4.2,2.8
		c1.2,1.1,2,2.1,2,3.3c0,1.3-1.2,3.1-4.7,5.3c-2.1,1.3-5.3,2.7-9,3.8c-0.1,0.7-0.2,1.4-0.1,2.1c0.7,0.2,1.5,0.3,2.3,0.3
		c2.8,0,5.9-0.9,10.4-3.8c0.4-0.3,0.6-0.1,0.4,0.4c-0.4,1.3-0.8,2-1.7,2.8c-3.1,2.6-7.3,4.3-10.9,4.3C423,47.8,421.9,47.6,421,47.1z
		 M434.3,30.9c-3.5,0.8-7.5,4.4-9.4,8.2c2.5-1,4.9-2.3,6.2-3.3C433.6,34,434.4,32.6,434.3,30.9z"/>
	<path class="st0" d="M446.3,55.9c-0.7,0-1-0.7-2.1-1.5c-1.3-1-2.5-1.6-2.5-3.1c0-2.7,4-9.7,7.7-15.4c1.4-2.2,2.8-4.2,4.1-6.2
		c-1.3,0.1-1.8-0.1-2.1-0.6c-0.2-0.4-0.5-1.2-0.6-1.6c-0.2-0.8,0.2-0.9,0.6-0.9c1-0.1,2.6-0.3,4.4-0.4c3.8-5.5,7.5-10.2,11.4-14.4
		c3.1-3.5,4.5-3.8,5.4-3.8c0.7,0,1.6,0.3,2.2,0.6c0.8,0.4,1.5,1.1,1.5,2.2c0,1.2-1.7,5.7-3.4,8.6c-0.6,0.8-1.3,1.2-2,1.2
		c-0.7,0-1.1,0.1-1.7,0.1c-0.4,0-0.7-0.2-0.8-0.4c-1.3,1.5-2.7,3.3-4.2,5.6c2.2-0.1,4.1-0.1,5.4-0.1c0.9,0,1.6,0.1,2,0.6
		c0.4,0.4,0.8,1.1,1,1.3c0.2,0.2,0.1,0.3-0.6,0.4c-2.7,0.2-6.4,0.6-9.8,0.9c-11.4,17.6-13.7,22.7-14.8,25.5
		C447.1,55.4,446.7,55.9,446.3,55.9z"/>
	<path class="st0" d="M463.2,45.3c-2.5-2.7-3-6.8,0.5-11.4c2.8-3.7,7.5-7.4,11.3-7.4c1.8,0,4,1.1,4.7,2.2c1.5,0.6,2.2,2.3,2.2,4.3
		c0,0.4-0.1,0.9-0.1,1.3c3.7-0.3,6.2-2,8.6-4.4l0.2-0.2c0.4-0.4,0.6-0.4,0.8-0.2l0.1,0.2c0.2,0.3,0.2,0.6-0.1,0.9l-0.2,0.3
		c-2,2.5-5.6,5.4-10.1,5.7c-0.4,1.2-0.9,2.3-1.6,3.4c-2.7,4.6-6.7,7.7-11,7.7C466.3,47.8,464.8,46.9,463.2,45.3z M468.6,43.9
		c3.7-0.9,7.4-4.1,9.5-7.4c-2.3-0.6-3.3-2.1-3.3-3.6c-1.6,1.5-3.2,3.3-4.6,5.6C469,40.4,468.3,42.3,468.6,43.9z M479.3,34.2
		c0.3-0.8,0.4-1.6,0.4-2.3c0-0.8-0.3-1.4-0.8-1.6c-0.5,0.2-1.1,0.4-1.7,0.8c0,0.1-0.1,0.3-0.1,0.5C477.2,32.7,477.8,33.7,479.3,34.2
		z"/>
	<path class="st0" d="M485.3,46.6c-1.7-0.4-3.1-0.9-3.1-2.8c0-1.6,1.1-4.2,3.8-7.9c2.2-2.8,5.8-8,6.6-9.6c0.2-0.4,0.6-0.4,0.9-0.3
		c0.9,0.3,1.6,0.4,2.4,0.8c0.7,0.4,0.9,1.1,0.9,1.8c0,0.6-0.1,1.3-0.3,2.1c3.2-2.9,6-4.9,8.5-6c1.2-0.6,2-0.9,2.5-0.9
		c0.4,0,0.6,0.3,0.9,0.6c0.2,0.2,0.5,0.4,0.5,0.5s-0.1,0.2-0.3,0.3c-5.6,3.5-12.3,9.9-17.7,18.1c-2.2,3.3-2.7,3.8-3.3,3.8
		C487.3,47.2,486.8,47,485.3,46.6z"/>
</g>
</svg>
