<?xml version="1.0" encoding="utf-8"?>
<!-- Generator: Adobe Illustrator 24.3.0, SVG Export Plug-In . SVG Version: 6.00 Build 0)  -->
<svg version="1.1" id="Layer_1" xmlns="http://www.w3.org/2000/svg" xmlns:xlink="http://www.w3.org/1999/xlink" x="0px" y="0px"
	 viewBox="0 0 512 313.3" style="enable-background:new 0 0 512 313.3;" xml:space="preserve">
<style type="text/css">
	.st0{fill:#C8122E;}
</style>
<g id="MH7yoT.tif">
	<g>
		<path class="st0" d="M144.4,20.4c2.5,0,5.1,0,7.6,0c0.2,0.1,0.4,0.3,0.6,0.4c6.9,1,12.4,4.5,17.2,9.4
			c23.5,23.6,47.1,47.1,70.7,70.6c0.7,0.7,1.3,1.3,1.7,1.8c-13.5,13.5-26.9,26.8-40.5,40.4c-17.7-17.7-35.6-35.6-53.2-53.1
			c-22.5,22.4-44.8,44.7-67.5,67.4c0.5,0.4,1.3,0.8,1.9,1.4c16.7,16.7,33.4,33.3,50.1,50c1.5,1.4,1.5,2.4,0.6,4.2
			c-8,15.8-15.9,31.7-23.9,47.6c-0.4,0.8-0.8,1.6-1.1,2.4c0.9-0.3,1.4-0.8,1.9-1.3c77.5-77.3,155-154.7,232.4-232
			c3.6-3.6,7.7-6.4,12.6-7.8c1.5-0.5,3-0.8,4.5-1.3c2.5,0,5.1,0,7.6,0c0.2,0.1,0.4,0.3,0.6,0.4c6.9,1,12.4,4.4,17.2,9.3
			c6.7,6.9,13.5,13.8,20.3,20.7c28.4,28.4,56.8,56.8,85.3,85.1c4.2,4.2,7.1,9.1,8.4,14.9c0.2,1,0.5,1.9,0.8,2.9c0,1.9,0,3.8,0,5.7
			c-0.1,0.3-0.4,0.5-0.4,0.8c-0.9,7.5-4.7,13.2-10,18.4c-22.4,22.2-44.7,44.5-67,66.8c-12.8,12.7-25.5,25.5-38.3,38.2
			c-7.2,7.2-15.7,10.1-25.8,8.5c-14.4-2.3-25-16.6-23.2-31c0.9-7.2,4.1-13,9.2-18.1c28.1-28,56.1-56,84.2-84
			c0.8-0.8,1.8-1.3,2.8-2.1c-1.1-1.2-1.8-1.9-2.4-2.6c-16.7-16.7-33.4-33.4-50.1-50c-1.4-1.4-1.5-2.3-0.6-4.1
			c8.1-16.1,16.2-32.2,24.2-48.3c0.4-0.7,0.7-1.5,1-2.3c-0.3-0.2-0.5-0.4-0.8-0.7c-0.5,0.8-0.9,1.7-1.6,2.4
			c-77.3,77.2-154.7,154.5-232,231.7c-12.7,12.7-29.9,12.7-42.5,0c-35.3-35.2-70.5-70.4-105.8-105.5c-3.7-3.7-6.7-7.9-8.2-12.9
			c-0.4-1.5-0.8-3-1.2-4.5c0-2.5,0-5.1,0-7.6c0.1-0.2,0.3-0.4,0.4-0.6c1-6.9,4.5-12.4,9.4-17.2C56.6,99.9,91.6,64.9,126.6,30
			c1.7-1.7,3.4-3.6,5.4-4.6C136,23.6,140.2,22.1,144.4,20.4z"/>
	</g>
</g>
</svg>
