
<svg 
	version="1.1" id="Layer_1" 
	xmlns="http://www.w3.org/2000/svg" 
	xmlns:xlink="http://www.w3.org/1999/xlink" 
	x="0px"
	y="0px"
	viewBox="0 0 512 95.5"
	width="300px"
	height="60px"
	style="enable-background:new 0 0 512 95.5;" 
	xml:space="preserve"
 >
<style type="text/css">
	.st0{fill:#C8202F;}
</style>
<g>
	<path class="st0" d="M15.2,84.4c-4.6-3.3-6.1-8.4-6.1-13.4c0-8.7,7.3-20.4,18.6-24.2c2.9-1,7.9-2.1,10.3-2.1c1,0,2,0.8,0.9,1.7
		c-10.3,8.1-16.6,19.4-16.6,27.4c0,1.8,0.3,3.3,1,4.4C30,75.7,38.2,69.1,49.4,53C69.9,23.8,76.3,14,79.7,7.1c1-1.9,1.9-2.6,3.3-1.8
		c1.8,1,3.1,1.7,5.2,3.2c3.1,2.4,2.2,8.4-0.9,13.9c-3.6,6.4-9.1,15.2-17.2,27.2C50.7,78.5,37,87.3,24.7,87.3
		C21,87.3,17.8,86.3,15.2,84.4z"/>
	<path class="st0" d="M71.9,80.3c-5-4.6-5.2-7.1,3.1-20c4.7-7.1,10.2-14.8,12.7-17.5c0.4-0.6,0.9-0.8,1.8-0.8c2.8,0,9.8,0.6,9.8,4.8
		c0,2.2-2.2,6.1-6.1,11.5C87,66.9,83.3,72.8,82,76.8c5.2-0.4,12.2-3.7,21.9-16.5l0.3-0.4c0.8-1,1-1.1,1.3-0.8l0.3,0.3
		c0.8,0.8,0.7,1.3,0.2,2.1l-0.3,0.6c-5,8.3-17.6,21.9-26,21.9C76.5,83.9,75,82.8,71.9,80.3z M96.8,31.3c1.7-3.6,4.2-7.1,6.4-9.5
		c1.7-1.9,2.7-2.6,3.6-2.3c2.3,0.7,5.1,2.1,6.3,3.2c1.1,0.9,1.7,1.6,0.8,2.4c-2.9,2.9-6.1,5.9-7.4,7.2c-1.8,2-3.3,2.2-5,2.2
		c-1.6,0-3.9-0.7-4.7-1.2C96.4,33,96.4,32.3,96.8,31.3z"/>
	<path class="st0" d="M128.8,84.4c-1.4,0-3.8-1.4-5.5-3.2c-2.4-2.6-2.9-5-1.6-8.1c2.1-5.1,9.9-13.9,16.6-23.2
		c-6.5,3.9-17.8,13.4-28.2,29.5c-3,4.7-5,5.1-7.3,4.3c-1.2-0.4-3.9-2.1-4.7-2.7c-1.7-1.1-2.7-3.3-2.3-6.4c0.4-3.7,4.3-9.4,8-14.3
		C116,44.2,118.7,41,120.5,41c1.9,0,4.4,2.7,7.7,4.4c2,1,2.6,2.2,2.3,4c6.7-5.1,10.5-7,12.7-7c1.3,0,3,0.4,4.6,1.7
		c1.6,1.2,2.4,2.3,2.4,4.4c0,2.6-1.3,6.2-3.3,9.7c8.7-6.7,10.9-8,13.3-8c1.4,0,2.6,0.3,4.1,1.1c2.2,1.1,3.3,3,3.3,4.4
		c0,4.7-6.7,11.5-9.8,17.6c0.2,0.1,0.4,0.1,0.8,0.1c2.1,0,7-1.6,13.2-5.9c0.7-0.4,1-0.1,1,0.7c0,1.3-0.2,2.9-1.3,3.9
		c-5.3,4.6-13,9.3-18.3,9.3c-6.3,0-9.5-6.4-9.1-9.7c0.3-2.6,1.4-5.3,3.2-8.2c-3.2,2.6-6.3,7.1-12.1,14.8
		C131.6,82.9,130.2,84.4,128.8,84.4z"/>
	<path class="st0" d="M215.9,88.7c8.3-12.2,17.4-25.6,25.9-38.3c-6.9,1.3-14.4,2.7-20.9,3.7c-5.4,7.9-10.9,15.5-15.5,21.6
		c-3.3,4.4-4.8,5.7-8.8,7.5c-2.6,1.1-8.1,2.4-13.2,4c-1.6,0.6-2.9,0.2-1.4-2.2c5.8-9.5,12.1-19.3,19-29.5c-0.1,0-0.2-0.1-0.3-0.2
		c-1.1-1-2-3.4-2.2-5.2c-0.1-1,0.3-1.2,1.4-1.4c2-0.3,4.2-0.7,6.4-1c8.8-12.8,18.3-26.1,28.5-40.1c1.1-1.4,2.3-2,3.4-0.9
		c1.9,1.9,3.3,4.7,5.2,8c1.2,2.1,1,3.8-1.6,7.7c-3.8,5.9-9,14-14.7,22.4c6.9-1,13.9-1.9,20.1-2.7c11.2-16.8,20.6-30.7,24.4-36
		c0.8-1.1,1.4-1.4,2.1-1c1.6,1,3.8,3.3,5.9,5.1c2,1.7,2.7,4.4,0.6,7.7c-7,10.9-35.4,54.3-44.4,66.6c-1.6,2-2.9,2.9-5.8,3.4
		c-4.4,0.8-11.2,2.7-13.1,2.7C214.9,90.6,215,90,215.9,88.7z"/>
	<path class="st0" d="M264.4,79c-4.9-5.3-5.9-13.5,1-22.6c5.5-7.4,15-14.8,22.5-14.8c3.7,0,8,2.2,9.4,4.4c3,1.2,4.4,4.6,4.4,8.5
		c0,0.9-0.1,1.8-0.2,2.7c7.3-0.6,12.4-4,17.2-8.8l0.4-0.4c0.9-0.9,1.2-0.8,1.6-0.3l0.2,0.3c0.4,0.7,0.4,1.2-0.1,1.9l-0.4,0.6
		c-3.9,4.9-11.2,10.7-20.1,11.4c-0.8,2.3-1.9,4.7-3.1,6.8c-5.3,9.2-13.4,15.3-22,15.3C270.5,84,267.4,82.2,264.4,79z M275.1,76.2
		c7.4-1.9,14.8-8.1,19-14.7c-4.7-1.1-6.5-4.2-6.5-7.2c-3.1,2.9-6.3,6.7-9.1,11.1C276,69.2,274.5,72.9,275.1,76.2z M296.4,56.8
		c0.6-1.7,0.9-3.2,0.9-4.7c0-1.6-0.6-2.8-1.6-3.1c-1,0.3-2.1,0.8-3.3,1.6c0,0.2-0.1,0.6-0.1,1C292.3,54,293.4,56,296.4,56.8z"/>
	<path class="st0" d="M308.3,81.5c-3.3-0.9-6.2-1.9-6.2-5.5c0-3.2,2.1-8.4,7.7-15.6c4.3-5.7,11.5-15.9,13.2-19.1
		c0.3-0.8,1.2-0.8,1.9-0.6c1.9,0.7,3.2,0.8,4.8,1.7c1.3,0.8,1.8,2.1,1.8,3.7c0,1.2-0.2,2.7-0.7,4.2c6.3-5.8,12-9.7,17-12
		c2.4-1.2,4-1.8,4.9-1.8c0.9,0,1.1,0.6,1.9,1.2c0.3,0.3,1,0.8,1,1s-0.2,0.4-0.6,0.7c-11.2,7-24.5,19.8-35.2,36
		c-4.4,6.7-5.4,7.5-6.7,7.5C312.3,82.8,311.4,82.4,308.3,81.5z"/>
	<path class="st0" d="M345.1,80.3c-4.8-4.4-5.3-9.1,1.8-20c2.9-4.4,5.4-8.3,7.8-12c-1.4,0-2-0.3-2.9-1.1c-1.4-1.3-2.7-3.6-2.7-4.4
		c0-0.4,0.3-0.8,2.1-1c2.7-0.3,5.7-0.8,8.7-1.1c4.1-6,7.9-11.3,12.1-16.9c3.3-4.4,4.7-5.3,5.5-5.3c1.6,0,2.1,1.8,4.1,3.6
		c4.7,3.9,3.7,6.4-3.2,17.1c3.2-0.1,6.1-0.2,8.3-0.2c1.1,0,1.2,0.3,1.2,0.8c0,1.2-1,2.3-2.3,2.6c-1.3,0.2-1.4,0.9-5.5,1.9l-5.8,1.3
		C362,64.3,357.2,72.1,356.5,76c8.7-0.6,15.6-4.9,23.8-15.8l0.3-0.4c0.8-1,1-1.1,1.3-0.8l0.3,0.3c0.8,0.8,0.7,1.3,0.2,2.1l-0.3,0.6
		c-3.9,6.4-18.2,22-28.2,22C351.5,84,348.2,83.3,345.1,80.3z"/>
	<path class="st0" d="M378.7,78.8c-5-5.7-5.8-13.2,1.4-22.9c6.1-8.1,17.3-14.8,23.9-14.8c2.6,0,4.6,0.3,6.8,1.7c3.2,2,4,3.2,4,3.9
		c0,0.4-0.1,0.8-1.2,1.4c1.4,1.9,2.3,4.4,2.3,7.5c0,1-0.1,2-0.2,3c6.3-1,12.4-5.1,17.5-10.2l0.4-0.4c0.9-0.9,1.2-0.8,1.6-0.3
		l0.2,0.3c0.4,0.7,0.4,1.2-0.1,1.9l-0.4,0.6c-4.3,5.3-12.4,12-20.8,13.4c-3.9,9.7-13.5,19.9-24.5,19.9
		C384.8,83.8,381.5,82,378.7,78.8z M407.4,64c-4.3-1.1-6.3-4.2-6.7-7.9c-7,5.7-12.3,12.8-11.5,19.8C395.9,75.2,403.1,69.9,407.4,64z
		 M410.3,49.9c-1.8,1-3.7,2.1-5.5,3.3c0.2,3,1.9,5,5.5,5.5c0.7-1.7,1-3.2,1-4.8C411.3,52.1,411,50.7,410.3,49.9z"/>
	<path class="st0" d="M425.3,84c-1.9,0-3.9-1.1-5.7-2.6c-2-1.6-3.6-3.7-3.6-6.3c0-3.2,3.3-8.8,8-14.9c7-9.2,12.1-16.2,13.5-18.8
		c0.4-0.8,0.9-1,1.6-1c2.3,0,6.3,1.9,9.1,4.6c1.8,1.8,2.7,3.4,1.7,5.9c5.9-3.1,10.8-5.2,13.2-5.2c1.9,0,3.7,0.8,5.2,2.2
		c2.6,2.3,2.7,4.3,0.9,8.1c-2.7,5.8-9.7,14.5-11,19.8c5.2-1.2,11.4-5.3,19.1-15.5l0.3-0.4c0.8-1,1-1.1,1.3-0.8l0.3,0.3
		c0.8,0.8,0.7,1.3,0.2,2.1l-0.3,0.6c-4.1,6.8-15.9,20.6-25.4,20.6c-2.7,0-5-1.3-7.1-3.7c-2.7-3-3.8-6.1-2-10
		c2.8-5.9,8.3-11,11.8-16.2c-4.6,3.1-10.7,8-16.4,13c-5.7,8.4-9.3,13.8-12,16.4C426.7,83.6,426,84,425.3,84z"/>
	<path class="st0" d="M486.4,85.4c-2.4,1.8-5.3,3.1-9,3.1c-3.8,0-6.5-1.3-9-3.4c-2-1.8-2.4-3.4-1.3-3.8c6.4-2.1,16.1-8.5,16.1-14.1
		c0-4-6.4-5.7-6.4-12.3c0-10.3,12.1-11.7,19.4-16.3c0.7-0.6,1.9-0.2,3.6,1.9c2.4,3.1,3.1,5.7,3.1,7.1c0,3.9-3.4,6.3-10.8,8.9
		c-4.1,1.4-6.3,2.4-6.3,4.7c0,3.7,6.7,6.4,6.7,13.9C492.4,78.6,490.5,82.3,486.4,85.4z"/>
</g>
</svg>
