<?xml version="1.0" encoding="utf-8"?>
<!-- Generator: Adobe Illustrator 24.3.0, SVG Export Plug-In . SVG Version: 6.00 Build 0)  -->
<svg version="1.1" id="Layer_1" xmlns="http://www.w3.org/2000/svg" xmlns:xlink="http://www.w3.org/1999/xlink" x="0px" y="0px"
	 viewBox="0 0 512 214" style="enable-background:new 0 0 512 214;" xml:space="preserve">
<style type="text/css">
	.st0{fill:#C8112E;}
	.st1{font-family:'Cortado';}
	.st2{font-size:101.4538px;}
	.st3{fill:#C8122E;}
</style>
<text transform="matrix(1 0 0 1 33.066 189.8665)" class="st0 st1 st2">Jim Hortons</text>
<g id="MH7yoT.tif">
	<g>
		<path class="st3" d="M204.9,13.8c1.2,0,2.4,0,3.5,0c0.1,0,0.2,0.1,0.3,0.1c3.2,0.4,5.7,1.6,7.9,3.4c10.8,8.4,21.6,16.8,32.4,25.2
			c0.3,0.2,0.6,0.5,0.8,0.6c-6.3,4.7-12.5,9.3-18.9,14c-8.1-6.3-16.3-12.7-24.4-18.9c-10.5,7.8-20.9,15.5-31.4,23.4
			c0.2,0.1,0.6,0.3,0.9,0.5c7.7,6,15.3,11.9,23,17.8c0.7,0.5,0.7,0.9,0.3,1.5c-3.8,5.5-7.5,11.1-11.2,16.6c-0.2,0.3-0.4,0.6-0.5,0.8
			c0.4-0.1,0.6-0.3,0.9-0.4c36.1-26.8,72.2-53.7,108.2-80.5c1.7-1.2,3.6-2.2,5.8-2.7c0.7-0.2,1.4-0.3,2.1-0.4c1.2,0,2.4,0,3.5,0
			c0.1,0,0.2,0.1,0.3,0.1c3.2,0.4,5.7,1.6,7.9,3.4c3.1,2.5,6.2,4.9,9.3,7.4c13,10.1,26,20.2,39.1,30.3c1.9,1.5,3.2,3.2,3.8,5.3
			c0.1,0.4,0.2,0.7,0.4,1c0,0.7,0,1.3,0,2c0,0.1-0.2,0.2-0.2,0.3c-0.4,2.6-2.2,4.6-4.7,6.4c-10.4,7.7-20.8,15.4-31.2,23.2
			c-6,4.4-11.9,8.9-17.8,13.3c-3.4,2.5-7.3,3.5-12,2.9c-6.6-0.9-11.5-6-10.6-11c0.4-2.5,1.9-4.6,4.3-6.3
			c13.1-9.7,26.1-19.4,39.2-29.2c0.4-0.3,0.8-0.4,1.3-0.7c-0.5-0.4-0.8-0.7-1.1-0.9c-7.7-6-15.3-11.9-23-17.8
			c-0.6-0.5-0.7-0.8-0.3-1.4c3.8-5.6,7.6-11.2,11.4-16.9c0.2-0.2,0.3-0.5,0.5-0.8c-0.1-0.1-0.2-0.1-0.4-0.2
			c-0.2,0.3-0.4,0.6-0.7,0.8c-36,26.8-72,53.6-108,80.4c-5.9,4.4-13.9,4.3-19.6-0.2c-16.2-12.5-32.3-25.1-48.5-37.6
			c-1.7-1.3-3.1-2.8-3.7-4.6c-0.2-0.5-0.4-1.1-0.5-1.6c0-0.9,0-1.8,0-2.7c0-0.1,0.1-0.1,0.2-0.2c0.5-2.4,2.1-4.3,4.4-6
			c16.3-12.1,32.6-24.3,48.9-36.4c0.8-0.6,1.6-1.3,2.5-1.6C201,14.9,203,14.4,204.9,13.8z"/>
	</g>
</g>
</svg>
