<?xml version="1.0" encoding="utf-8"?>
<!-- Generator: Adobe Illustrator 24.3.0, SVG Export Plug-In . SVG Version: 6.00 Build 0)  -->
<svg version="1.1" id="Layer_1" xmlns="http://www.w3.org/2000/svg" xmlns:xlink="http://www.w3.org/1999/xlink" x="0px" y="0px"
	 viewBox="0 0 893 222" style="enable-background:new 0 0 893 222;" xml:space="preserve">
<style type="text/css">
	.st0{display:none;}
	.st1{display:inline;}
	.st2{enable-background:new    ;}
	.st3{fill:#C8122E;}
</style>
<g id="border">
</g>
<g id="Layer_3" class="st0">
	<g id="baUsmF_1_" class="st1">
		<g>
			<path d="M886.4,353.8c0.6-1.3,0.9-2.3,1.4-3.1c5.6-7.8,11.3-15.6,17-23.4c3.4-4.6,6.8-9.2,10.1-13.9c0.4-0.5,0.4-1.5,0.2-2.1
				c-1-2.7-2-5.4-3.2-8.1c-0.2-0.6-1-1.1-1.6-1.2c-10.4-1.7-20.9-3.4-31.3-5c-3.9-0.6-7.8-1.3-11.8-1.9c-2.4-0.4-3.8-2-4.1-4.4
				c-0.1-1-0.1-2-0.1-3c0-31.8,0-63.7,0-95.5c0-1.2,0-2.4,0.1-3.6c0.1-2.2,1.7-3.9,4.2-4.3c8.6-1.4,17.2-2.8,25.8-4.2
				c6.5-1.1,13-2.1,19.6-3.1c1.3-0.2,2.1-0.8,2.6-2.1c0.8-2.2,1.7-4.4,2.8-6.4c0.8-1.5,0.5-2.5-0.4-3.7c-8.1-11-16.2-22-24.3-33.1
				c-2.5-3.4-2.4-5.2,0.6-8.1c11-10.9,22.1-21.7,33.2-32.6c9.6-9.4,19.2-18.9,28.7-28.4c3.2-3.2,6.4-6.4,9.7-9.5
				c2.2-2.2,4.3-2.4,6.9-0.7c5.3,3.6,10.6,7.4,15.8,11.1c6.7,4.8,13.4,9.5,20.2,14.2c0.5,0.3,1.4,0.5,2,0.3
				c3.4-1.3,6.8-2.6,10.1-4.1c0.6-0.3,1.3-1.2,1.4-1.8c2.3-13.3,4.4-26.5,6.7-39.8c0.4-2.7,2.5-4.3,5.3-4.3c34,0,68.1,0,102.1,0
				c3.2,0,5,1.5,5.6,4.9c1.9,11.3,3.7,22.6,5.5,33.8c0,0.2,0.1,0.5,0.1,0.8c-0.1,4.7,2.1,7.2,6.8,8.3c2.8,0.6,5.4,2.2,8.1,3.4
				c1.1,0.5,2,0.4,3-0.3c9.7-6.9,19.4-13.8,29-20.7c4.1-2.9,5.8-2.8,9.3,0.6c0.8,0.8,1.7,1.6,2.5,2.4c15,14.7,29.9,29.4,44.9,44.1
				c7.8,7.7,15.6,15.4,23.4,23.1c2.8,2.7,2.9,4.8,0.6,7.9c-7.4,10-14.7,20.1-22.1,30.2c-0.4,0.6-0.7,1.7-0.4,2.3c1.9,5,4,10,5.9,15
				c0.4,1,1,1.5,2,1.6c7.6,1.2,15.2,2.4,22.8,3.6c4.2,0.7,8.4,1.3,12.5,2c3,0.5,4.3,2.3,4.3,5.8c0,29.8,0,59.6,0,89.5
				c0,3.5,0,7,0,10.4c0,3.2-1.7,4.9-4.9,5.4c-9.9,1.5-19.9,3.2-29.8,4.8c-2.6,0.4-5.2,0.8-7.8,1.3c-0.6,0.1-1.4,0.7-1.7,1.2
				c-2.3,5-4.6,10-6.8,15.1c-0.2,0.5-0.1,1.5,0.3,2c6.4,8.9,12.9,17.8,19.4,26.6c0.5,0.7,1,1.4,1.6,2.2c1.7,2.5,1.7,4.5-0.5,6.7
				c-6.3,6.3-12.6,12.5-18.9,18.7c-11.3,11.1-22.5,22.2-33.8,33.3c-6.5,6.4-12.9,12.7-19.4,19.1c-2.4,2.3-4.7,2.5-7.4,0.7
				c-6.2-4.4-12.4-8.8-18.6-13.2c-4.7-3.3-9.4-6.7-14.1-9.9c-0.6-0.4-1.8-0.6-2.6-0.3c-4.4,1.5-8.8,3.1-13.1,4.8
				c-0.6,0.2-1.2,0.9-1.3,1.5c-2.1,12.3-4.2,24.7-6.2,37c-0.5,2.9-2.3,4.6-5.3,4.7c-0.8,0-1.7,0-2.5,0c-32.7,0-65.5,0-98.2,0
				c-5.1,0-6.3-1.2-7.1-6.2c-1.4-8.8-2.9-17.6-4.4-26.4c-0.8-4.9-1.6-9.7-2.5-14.6c-0.1-0.6-0.6-1.4-1.2-1.6
				c-3.3-1.6-6.6-3.1-10-4.5c-0.6-0.3-1.8-0.1-2.3,0.3c-11,7.7-21.9,15.4-32.9,23.2c-2.9,2.1-5.2,2-7.7-0.4
				c-9.9-9.7-19.7-19.4-29.6-29.1c-9.6-9.5-19.3-18.9-28.9-28.4c-4.4-4.3-8.8-8.5-13-12.9C887.9,356.6,887.2,355.1,886.4,353.8z
				 M1187.3,243.2c0.2-55.4-45.3-100.5-101.9-100.5c-56.4,0-102.5,45.1-102,101.3c0.5,55.1,45.7,99.4,102,99.4
				C1141.6,343.4,1187.3,298.4,1187.3,243.2z"/>
		</g>
	</g>
</g>
<g class="st2">
	<path class="st3" d="M17.2,198.2c0-6.1,2.7-13.9,14.1-13.9c-0.2,11,2.7,18.5,8.2,18.5c10,0,16.9-24.5,22.8-52.8
		c5.3-25.7,12.4-58.3,18.3-83.2c12.2-0.2,20,3.5,20,12.6c0,1.4-0.2,3.3-0.6,5.1c-3.9,15.5-12.8,49.1-18.5,71.1
		c-6.5,24.7-15.9,58.5-45.1,58.5C23.1,213.9,17.2,206.7,17.2,198.2z M96.5,52.8c-3.5,0-6.7-1.4-8.4-4.9c-0.8-1.8-1-3.7-1-5.9
		c0-8.8,6.1-19.2,13.7-19.2c6.3,0,10.4,3.3,12.2,7.1c1,2.7-8.2,21.2-12.4,22.4C99.4,52.6,98.1,52.8,96.5,52.8z"/>
	<path class="st3" d="M107.9,139.1c0-0.8,0-1.8,0.2-2.6c1.2-7.3,12.4-54,15.1-69.7c10.6-0.2,20.6,2.6,20.6,12.4
		c0,7.9-14.1,42.8-14.1,57.1c0,2,0.4,3.3,1.4,3.3c9.6,0,24.7-25.5,33.2-42.6c2.9,0.2,5.1,1.4,5.7,4.1c-5.5,13.5-27.1,55.4-43.2,55.4
		C116.3,156.6,107.9,149.3,107.9,139.1z M140.5,52.8c-3.3,0-6.7-1.4-8.4-4.9c-0.8-1.8-1-3.7-1-5.9c0-8.8,6.3-19.2,13.7-19.2
		c6.3,0,10.4,3.3,12.2,7.1c1.2,2.7-8.2,21.2-12.4,22.4C143.4,52.6,142,52.8,140.5,52.8z"/>
	<path class="st3" d="M154.8,143.9c0-13,12.4-63.4,16.1-77c7.9,0,19.2,2.6,19.2,12.2c0,6.9-9.6,27.7-12.8,39.7l0.8,0.2
		c10-22.6,30.8-52,48.3-52c7.5,0,14.9,6.5,14.9,13.9c0,3.7-3.5,14.1-6.1,21.6l0.8,0.2c8.8-15.1,25.5-35.9,38.1-35.9
		c7.7,0,14.9,6.5,14.9,13.9c0,12.2-13.2,49.1-13.2,57.3c0,1,0.4,1.8,0.8,1.8c8.8,0,24.5-27.1,33.2-42.6c2-0.6,6.1,2.6,5.3,4.9
		c-4.7,10.2-27.3,54.6-42.8,54.6c-13.3,0-19.8-11.2-18.8-18.6c2.4-17.1,12-43.6,12-52c0-2-0.4-2.9-1.4-2.9
		c-5.1,0-22.8,19.6-33.2,41.8c-4.7,16.1-6.9,26.3-7.5,31.8c-11.8,0-19.6-7.5-19.6-14.5c0-0.6,0-1.4,0.2-2
		c4.1-17.1,14.1-45.2,14.1-54c0-2-0.4-2.9-1.6-2.9c-4.3,0-31.6,30.4-40,58.1c-1,4.7-1.6,12.6-2,15.5
		C163.8,156.8,154.8,151.3,154.8,143.9z"/>
	<path class="st3" d="M302,144.6c2.4-19.6,5.5-40.6,25.1-131.9c10,0,20.8,2,20.8,11.8c0,9.6-12.6,40.4-19,69.5
		c-1.8,8.8-2.7,18.1-4.1,24.9l0.8,0.2c12.8-28.5,33-52.2,46.3-52.2c10.8,0,18.6,12.2,18.6,21.2c0,23-12,68.5-46.7,68.5
		C334.6,156.6,308.5,148.8,302,144.6z M368,94.6c0-5.7-1.4-8.4-4.3-8.4c-7.3,0-24.3,20.2-39.7,49.9c7.7,5.5,15.1,7.5,21,7.5
		C355.4,143.5,368,116.8,368,94.6z"/>
	<path class="st3" d="M396.6,139.1c0-0.8,0-1.8,0.2-2.6c1.2-7.3,12.4-54,15.1-69.7c10.6-0.2,20.6,2.6,20.6,12.4
		c0,7.9-14.1,42.8-14.1,57.1c0,2,0.4,3.3,1.4,3.3c9.6,0,24.7-25.5,33.2-42.6c2.9,0.2,5.1,1.4,5.7,4.1c-5.5,13.5-27.1,55.4-43.2,55.4
		C405.1,156.6,396.6,149.3,396.6,139.1z M429.2,52.8c-3.3,0-6.7-1.4-8.4-4.9c-0.8-1.8-1-3.7-1-5.9c0-8.8,6.3-19.2,13.7-19.2
		c6.3,0,10.4,3.3,12.2,7.1c1.2,2.7-8.2,21.2-12.4,22.4C432.2,52.6,430.8,52.8,429.2,52.8z"/>
	<path class="st3" d="M518.1,102.2c-4.3,16.5-31.6,54.6-54.2,54.6c-14.1,0-19-12.4-19-19.6c0-7.1,2.2-13.5,13.2-62.2
		c-6.9-0.4-12.2-1.2-13.7-2.2c-0.4-4.1,0.6-9.8,5.3-9.8h11.2c2.7-12,5.9-25.9,9.4-42.4c10.2,0,18.6,2.6,18.6,13.2
		c0,0.8,0,1.8-0.2,2.7c-0.4,3.5-2.9,13.7-5.9,26.1c8.2-0.2,16.5-0.6,22-1.2c0.2,1.6,0.4,3.1,0.4,4.5c0,3.9-1,7.3-3.7,8.4
		c-4.3,1-12.8,1.4-21.8,1.4c-4.9,21.6-10.2,45.7-10.2,57.1c0,4.1,0.6,6.5,2.2,6.5c10,0,29.4-16.1,42.2-42.8
		C516.2,96,519.1,99.1,518.1,102.2z"/>
	<path class="st3" d="M526.2,156.4c-1.2,0.2-2.6,0.2-3.7,0.2h-0.8c-0.4,0-0.8,0-1.2,0c-11-0.6-16.1-6.1-16.1-12.4
		c0-4.3,2.6-9.2,9-13.5c4.7,7.9,10,10.2,15.9,10.2c9,0,14.1-5.3,14.1-13c0-7.1-4.7-13.3-9.6-20.4c-3.7-5.1-7.7-10.4-10-16.7
		c-4.5,10.6-10.4,22.8-16.1,31.4c-2.6,0-5.3-3.1-5.3-5.7c7.7-10.6,14.3-27.1,18.8-39.5c0-1.4,0-2.4,0.2-3.5
		c2.2-7.9,6.9-12.2,15.3-12.2c3.5,0,5.9,2.2,5.9,5.1c0,2.4-0.8,5.1-1.8,8c2.4,4.3,5.5,8.8,8.4,13.3c7.1,10.4,14.3,21.2,14.3,31.8
		c0,4.1-1.2,8.2-2.9,12.2c11-10,21.2-27.1,24.3-34.6c3.3,0,4.7,2.9,4.7,4.7C587.4,111.9,566.8,152.7,526.2,156.4z"/>
	<path class="st3" d="M624.3,135.4c0-23.2,12-68.3,47.1-68.3c9.2,0,16.9,2.6,23.2,6.7l0.6-4.1c0.8-0.2,1.6-0.2,2.2-0.2
		c7.1,0,18.6,5.1,18.6,12.6c0,0.8-0.2,1.6-0.4,2.4c-4.7,16.5-17.7,55.4-14.9,55.4c8.8,0,24.7-25.7,32.8-42.4c2-0.6,5.3,1.8,5.7,4.3
		c-6.1,13.3-27.3,55.2-44,55.2c-9.6,0-17.3-9.6-17.3-13.5c0-7.5,9-27.7,12.4-38.5l-0.8-0.4c-12.8,28.5-33.4,52.4-46.5,52.4
		C632.2,156.8,624.3,144.4,624.3,135.4z M691.1,87.7c-7.5-5.7-14.9-7.5-21-7.5c-10.6,0-23.2,26.5-23.2,48.7c0,5.5,1.2,8.8,4.3,8.8
		C658.5,137.8,676,117.5,691.1,87.7z"/>
	<path class="st3" d="M729.2,214.3c-7.1,0-16.9-3.5-15.7-10.6c1.2-7.3,7.5-35.9,12.6-64.8c4.9-27.5,10.6-65.8,12-72
		c6.9-0.4,19,2.7,19,12.4c0,8.4-8.6,28.9-10.4,39.5l0.8,0.4c12.8-28.7,33.4-52.2,46.3-52.2c11.6,0,18.6,12.4,18.6,21.4
		c0,23-11.8,68.3-46.9,68.3c-9.2,0-16.9-2.4-23.6-6.7c-3.5,20.8-7.1,47.1-9.4,64C731.5,214.1,730.3,214.3,729.2,214.3z M789.8,95
		c0-5.9-1.4-8.8-4.3-8.8c-7.3,0-24.5,20.2-40,49.9c7.7,5.5,15.1,7.5,21.2,7.5C778.8,143.5,789.8,111.7,789.8,95z"/>
	<path class="st3" d="M818.9,139.1c0-0.8,0-1.8,0.2-2.6c1.2-7.3,12.4-54,15.1-69.7c10.6-0.2,20.6,2.6,20.6,12.4
		c0,7.9-14.1,42.8-14.1,57.1c0,2,0.4,3.3,1.4,3.3c9.6,0,24.7-25.5,33.2-42.6c2.9,0.2,5.1,1.4,5.7,4.1c-5.5,13.5-27.1,55.4-43.2,55.4
		C827.3,156.6,818.9,149.3,818.9,139.1z M851.5,52.8c-3.3,0-6.7-1.4-8.4-4.9c-0.8-1.8-1-3.7-1-5.9c0-8.8,6.3-19.2,13.7-19.2
		c6.3,0,10.4,3.3,12.2,7.1c1.2,2.7-8.2,21.2-12.4,22.4C854.4,52.6,853,52.8,851.5,52.8z"/>
</g>
</svg>
