<?xml version="1.0" encoding="utf-8"?>
<!-- Generator: Adobe Illustrator 24.1.0, SVG Export Plug-In . SVG Version: 6.00 Build 0)  -->
<svg version="1.1" id="Layer_1" xmlns="http://www.w3.org/2000/svg" xmlns:xlink="http://www.w3.org/1999/xlink" x="0px" y="0px"
	 width="520px" height="453px" viewBox="0 0 520 453" style="enable-background:new 0 0 520 453;" xml:space="preserve">
<style type="text/css">
	.st0{fill:#C8122E;}
</style>
<g id="EjBSXR.tif">
	<g>
		<path class="st0" d="M500.9,232.3c-28.1,0-54,0-79.7,0c-11.1-37.8-37.7-57.9-78-59.2c-39.3-1.3-67.6,18.9-81.8,59.1
			c-1-1.4-2.1-2.3-2.3-3.3c-7.3-36.8-46-57.5-83.2-55.5c-26.1,1.4-48.7,10.8-64.5,32.8c-2.8,3.9-6.1,8.5-6.6,13
			c-1.5,13.2-9.3,14.4-20.3,14c-20.6-0.8-41.3-0.2-63.9-0.2c12.6-28.1,27.6-52.3,47.4-72.7c19.7-20.3,41.5-38.6,62.5-57.8
			c-19.7-14.3-45.5-26.1-55.5-57.3c19.9,10.4,37,19.3,54.1,28.2c0.8-1,1.7-1.9,2.5-2.9c-11.4-17.5-24.7-34.1-30.2-57.6
			c24.3,18,45,36.6,73.1,46.6c-7.7-15.7-14.4-29.6-22.3-45.9c4.3,1,5.5,0.9,6,1.4c28,31.8,64.2,43.3,105.3,48.5
			c103,13.1,183.6,61.5,231.9,156.6C497.2,223.5,498.6,227,500.9,232.3z"/>
		<path class="st0" d="M56.8,252.2c4.2,0,8.5-0.2,12.7,0c12.9,0.8,24.3-2,36.3-7.8c31.6-15.2,63.4-12.8,94.1,4.3
			c1.2,0.7,2.6,1.3,3.6,2.2c21.7,20.4,48.1,24.1,76.3,21c4-0.4,8.2-1.7,11.6-3.8c7-4.1,13.5-8.9,20.2-13.4
			c35.1-24.1,71.6-26.5,109.8-7.9c6,2.9,13.2,4.8,19.9,5c17.6,0.7,35.2,0.5,52.8,0.1c7.1-0.1,13.6,1.6,15.3,8.3
			c1.4,5.5-0.7,11.8-1.2,17.8c0,0.3-0.3,0.7-0.6,0.9c-15.8,10.4-13.9,27.3-16.4,42.9c-5.3,32-14.4,62.5-38.1,86.4
			c-30.3,30.7-78.6,40.3-119.3,23.7c-39.2-15.9-63.5-52.6-63.8-97.1c0-6.9-1.9-13.2-8.9-12.9c-8.3,0.4-10.4,7.5-10.5,15.4
			c-0.8,58.3-44.8,101.6-103,101.9c-47.6,0.2-85.7-23.8-102.6-68.5c-8.2-21.7-11.6-45.4-16.2-68.4c-1.3-6.4-1.7-11.9-7.6-16.2
			c-3.8-2.8-6.9-7.2-9-11.5c-5.5-11.3,1.6-22.5,14.1-22.7C36.4,252.1,46.6,252.2,56.8,252.2z M67.6,337.3
			C67.6,382,103.3,418,147.8,418c45,0.1,81.5-36.1,81.4-80.8c-0.1-44.5-35.9-80.4-80.5-80.5C103.2,256.6,67.7,291.9,67.6,337.3z
			 M291.7,337.1c0.1,45.3,35.9,81,81.1,80.9c44.4-0.1,80.5-36.2,80.5-80.6c0-45-36-80.8-81.3-80.8
			C327.4,256.7,291.6,292.5,291.7,337.1z"/>
		<path class="st0" d="M172.6,304.6c-10.9,24,2.3,41.9,27.9,40.1c-2.8,17.3-19.1,28.7-36.9,25.8c-18-2.9-30.4-19.5-27.9-37.4
			C138.3,313.9,153.3,302.3,172.6,304.6z"/>
		<path class="st0" d="M320.3,344.9c28.4,1.2,38.2-19.5,27.6-40.3c19.1-2.3,35.2,9.9,37.3,28.3c2.1,18.6-10.6,35.2-29,37.7
			C338.7,373.1,322.8,361.7,320.3,344.9z"/>
	</g>
</g>
</svg>
